<svg width="17" height="18" viewBox="0 0 17 18" fill="none" xmlns="http://www.w3.org/2000/svg">
<path d="M11 4.90335H2.66667C1.74619 4.90335 1 5.64954 1 6.57002V14.9034C1 15.8239 1.74619 16.57 2.66667 16.57H11C11.9205 16.57 12.6667 15.8239 12.6667 14.9034V6.57002C12.6667 5.64954 11.9205 4.90335 11 4.90335Z" stroke="white" stroke-width="2"/>
<path d="M4.33331 4.07001V3.65335C4.33331 3.26584 4.33331 3.07251 4.36498 2.91168C4.42923 2.58821 4.588 2.29108 4.8212 2.05789C5.05439 1.8247 5.35152 1.66593 5.67498 1.60167C5.83582 1.57001 6.02915 1.57001 6.41665 1.57001H12.6667C14.2383 1.57001 15.0233 1.57001 15.5117 2.05834C16 2.54668 16 3.33168 16 4.90335V11.57C16 13.1417 16 13.9267 15.5117 14.415C15.0233 14.9034 14.2383 14.9034 12.6667 14.9034H11.8333" stroke="white" stroke-width="2"/>
</svg>
