<svg width="17" height="17" viewBox="0 0 17 17" fill="none" xmlns="http://www.w3.org/2000/svg">
<path d="M1.00214 10.3622C1.23297 10.6394 1.52182 10.8625 1.84829 11.0158C2.17477 11.1691 2.53091 11.2488 2.89159 11.2494H6.63762L6.17758 12.4242C5.98623 12.9385 5.9225 13.4916 5.99187 14.036C6.06124 14.5804 6.26163 15.0999 6.57585 15.5498C6.89008 15.9997 7.30876 16.3667 7.79598 16.6193C8.2832 16.8719 8.82442 17.0025 9.37321 16.9999C9.53123 16.9996 9.68581 16.9537 9.8184 16.8677C9.951 16.7818 10.056 16.6594 10.1208 16.5152L12.462 11.2494H14.3926C15.0462 11.2494 15.673 10.9898 16.1352 10.5276C16.5974 10.0654 16.8571 9.43858 16.8571 8.78495V3.03446C16.8571 2.38084 16.5974 1.75399 16.1352 1.2918C15.673 0.82962 15.0462 0.569969 14.3926 0.569969H3.93489C3.35835 0.570162 2.80013 0.772476 2.35735 1.14171C1.91456 1.51095 1.61524 2.02374 1.51147 2.59085L0.468166 8.34134C0.403637 8.69674 0.418018 9.06198 0.510292 9.4112C0.602568 9.76042 0.770479 10.0851 1.00214 10.3622ZM12.7496 2.21297H14.3926C14.6104 2.21297 14.8194 2.29952 14.9734 2.45358C15.1275 2.60764 15.2141 2.81659 15.2141 3.03446V8.78495C15.2141 9.00283 15.1275 9.21178 14.9734 9.36584C14.8194 9.5199 14.6104 9.60645 14.3926 9.60645H12.7496V2.21297ZM2.07009 8.63708L3.11339 2.88659C3.14838 2.69522 3.25016 2.52247 3.4006 2.39912C3.55103 2.27576 3.74037 2.20979 3.93489 2.21297H11.1066V10.2554L8.87209 15.283C8.64209 15.2159 8.42848 15.1019 8.24475 14.9482C8.06102 14.7944 7.91117 14.6042 7.80464 14.3896C7.69811 14.175 7.63723 13.9407 7.62583 13.7014C7.61444 13.4621 7.65277 13.223 7.73843 12.9992L8.17382 11.8245C8.26659 11.5762 8.29791 11.3091 8.26511 11.0461C8.2323 10.7831 8.13634 10.5319 7.98542 10.314C7.8345 10.0961 7.6331 9.91791 7.3984 9.7947C7.16371 9.6715 6.90269 9.60691 6.63762 9.60645H2.89159C2.7709 9.60664 2.65165 9.58025 2.54232 9.52913C2.43299 9.47802 2.33627 9.40344 2.25903 9.31071C2.17989 9.21926 2.12193 9.11146 2.08926 8.99502C2.0566 8.87857 2.05006 8.75635 2.07009 8.63708Z" fill="white"/>
</svg>
