<svg width="17" height="17" viewBox="0 0 17 17" fill="none" xmlns="http://www.w3.org/2000/svg">
<path d="M15.8549 7.20778C15.6241 6.93065 15.3352 6.70756 15.0088 6.55425C14.6823 6.40095 14.3261 6.32118 13.9655 6.32056H10.2194L10.6795 5.14582C10.8708 4.63147 10.9346 4.07837 10.8652 3.53397C10.7958 2.98958 10.5954 2.47014 10.2812 2.02021C9.96698 1.57027 9.5483 1.20328 9.06108 0.95071C8.57386 0.698138 8.03264 0.567525 7.48385 0.570074C7.32582 0.570404 7.17125 0.616304 7.03865 0.702272C6.90606 0.78824 6.80107 0.910626 6.73629 1.05476L4.39502 6.32056H2.46449C1.81087 6.32056 1.18402 6.58021 0.721834 7.0424C0.259651 7.50458 0 8.13143 0 8.78506V14.5355C0 15.1892 0.259651 15.816 0.721834 16.2782C1.18402 16.7404 1.81087 17 2.46449 17H12.9222C13.4987 16.9998 14.0569 16.7975 14.4997 16.4283C14.9425 16.0591 15.2418 15.5463 15.3456 14.9792L16.3889 9.22867C16.4534 8.87327 16.439 8.50803 16.3468 8.15881C16.2545 7.80959 16.0866 7.48492 15.8549 7.20778ZM4.10749 15.357H2.46449C2.24662 15.357 2.03767 15.2705 1.88361 15.1164C1.72955 14.9624 1.643 14.7534 1.643 14.5355V8.78506C1.643 8.56718 1.72955 8.35823 1.88361 8.20417C2.03767 8.05011 2.24662 7.96356 2.46449 7.96356H4.10749V15.357ZM14.787 8.93293L13.7437 14.6834C13.7087 14.8748 13.6069 15.0475 13.4565 15.1709C13.306 15.2942 13.1167 15.3602 12.9222 15.357H5.75049V7.31458L7.98496 2.28701C8.21497 2.35406 8.42858 2.46807 8.61231 2.62183C8.79603 2.7756 8.94589 2.96578 9.05242 3.18038C9.15894 3.39498 9.21982 3.62933 9.23122 3.86864C9.24262 4.10795 9.20428 4.34702 9.11863 4.57077L8.68324 5.74551C8.59046 5.99382 8.55914 6.26088 8.59195 6.52391C8.62475 6.78694 8.72071 7.03813 8.87163 7.25603C9.02255 7.47394 9.22396 7.6521 9.45865 7.7753C9.69335 7.89851 9.95437 7.9631 10.2194 7.96356H13.9655C14.0862 7.96336 14.2054 7.98976 14.3147 8.04087C14.4241 8.09199 14.5208 8.16656 14.598 8.2593C14.6772 8.35075 14.7351 8.45855 14.7678 8.57499C14.8005 8.69144 14.807 8.81366 14.787 8.93293Z" fill="white"/>
</svg>
