<svg width="20" height="21" viewBox="0 0 20 21" fill="none" xmlns="http://www.w3.org/2000/svg">
<path d="M18.4772 19.4772C18.3116 19.643 18.115 19.7744 17.8985 19.8641C17.682 19.9538 17.45 20 17.2157 20C16.9814 20 16.7494 19.9538 16.533 19.8641C16.3165 19.7744 16.1198 19.643 15.9542 19.4772L12.8055 16.3285C11.5101 17.1576 9.97912 17.6537 8.32684 17.6537C3.72804 17.6537 0 13.9256 0 9.32684C0 4.72804 3.72804 1 8.32684 1C12.9256 1 16.6537 4.72804 16.6537 9.32684C16.6537 10.9791 16.1576 12.5101 15.3285 13.8055L18.4772 16.9542C18.643 17.1198 18.7744 17.3165 18.8641 17.533C18.9538 17.7494 19 17.9814 19 18.2157C19 18.45 18.9538 18.682 18.8641 18.8985C18.7744 19.115 18.643 19.3116 18.4772 19.4772ZM8.32684 3.3791C5.04249 3.3791 2.3791 6.0413 2.3791 9.32684C2.3791 12.6124 5.04249 15.2746 8.32684 15.2746C11.6124 15.2746 14.2746 12.6124 14.2746 9.32684C14.2746 6.0413 11.6124 3.3791 8.32684 3.3791Z" fill="white"/>
</svg>
