<svg width="19" height="5" viewBox="0 0 19 5" fill="none" xmlns="http://www.w3.org/2000/svg">
<path id="Vector" d="M9.5002 6.4584e-08C9.20176 5.76655e-08 8.90624 0.0646643 8.63052 0.190301C8.35479 0.315938 8.10427 0.500087 7.89324 0.732233C7.68221 0.96438 7.51481 1.23998 7.4006 1.54329C7.28639 1.8466 7.22761 2.1717 7.22761 2.5C7.22761 2.82831 7.28639 3.1534 7.4006 3.45671C7.51481 3.76002 7.68221 4.03562 7.89324 4.26777C8.10427 4.49991 8.35479 4.68406 8.63052 4.8097C8.90624 4.93534 9.20176 5 9.5002 5C10.1029 4.99985 10.6809 4.73631 11.107 4.26737C11.5331 3.79842 11.7724 3.16247 11.7723 2.49943C11.7721 1.83639 11.5326 1.20057 11.1063 0.731831C10.68 0.263097 10.1019 -0.000150538 9.49916 6.4584e-08H9.5002ZM2.27253 6.4584e-08C1.97409 5.76655e-08 1.67857 0.0646643 1.40284 0.190301C1.12712 0.315938 0.876593 0.500087 0.665564 0.732233C0.454535 0.96438 0.287137 1.23998 0.172929 1.54329C0.0587211 1.8466 -6.10352e-05 2.1717 -6.10352e-05 2.5C-6.10352e-05 2.82831 0.0587211 3.1534 0.172929 3.45671C0.287137 3.76002 0.454535 4.03562 0.665564 4.26777C0.876593 4.49991 1.12712 4.68406 1.40284 4.8097C1.67857 4.93534 1.97409 5 2.27253 5C2.87525 4.99985 3.45324 4.73631 3.87934 4.26737C4.30543 3.79842 4.54473 3.16247 4.5446 2.49943C4.54446 1.83639 4.30489 1.20057 3.87861 0.731831C3.45232 0.263097 2.87525 -0.000150538 2.27253 6.4584e-08ZM16.7279 6.4584e-08C16.4294 5.76655e-08 16.1339 0.0646643 15.8582 0.190301C15.5825 0.315938 15.3319 0.500087 15.1209 0.732233C14.9099 0.96438 14.7425 1.23998 14.6283 1.54329C14.5141 1.8466 14.4553 2.1717 14.4553 2.5C14.4553 2.82831 14.5141 3.1534 14.6283 3.45671C14.7425 3.76002 14.9099 4.03562 15.1209 4.26777C15.3319 4.49991 15.5825 4.68406 15.8582 4.8097C16.1339 4.93534 16.4294 5 16.7279 5C17.3306 4.99985 17.9086 4.73631 18.3347 4.26737C18.7608 3.79842 19.0001 3.16247 18.9999 2.49943C18.9998 1.83639 18.7602 1.20057 18.3339 0.731831C17.9077 0.263097 17.3306 -0.000150538 16.7279 6.4584e-08Z" fill="white"/>
</svg>
